Hanif_Shallow_5_0_grf.mot
version=1
nRows=32
nColumns=19
inDegrees=yes
endheader
time	right_ground_force_vx	right_ground_force_vy	right_ground_force_vz	right_ground_force_px	right_ground_force_py	right_ground_force_pz	right_ground_torque_x	right_ground_torque_y	right_ground_torque_z	left_ground_force_vx	left_ground_force_vy	left_ground_force_vz	left_ground_force_px	left_ground_force_py	left_ground_force_pz	left_ground_torque_x	left_ground_torque_y	left_ground_torque_z
3.800000	4.148700	321.733000	67.828100	0.205046	0.000000	-1.431660	-23.851500	5.197380	2.726320	-8.637930	242.359000	-53.941800	0.224233	0.000000	-0.986621	20.475500	-3.835300	7.178490
3.805000	3.456960	316.229000	67.304800	0.205436	0.000000	-1.432190	-23.282900	5.226930	2.854960	-8.532140	239.090000	-53.925000	0.224401	0.000000	-0.988117	20.563400	-3.917350	7.178110
3.810000	3.166500	317.329000	67.027100	0.206892	0.000000	-1.431420	-23.614000	5.123520	3.316840	-8.076120	237.961000	-53.407900	0.224416	0.000000	-0.987277	20.253200	-3.866480	7.123210
3.815000	2.994890	313.211000	66.744300	0.207267	0.000000	-1.430010	-23.751900	4.956110	3.387140	-8.049280	236.883000	-52.790200	0.225268	0.000000	-0.986542	19.982000	-3.654250	7.247060
3.820000	2.900010	312.431000	66.388500	0.208180	0.000000	-1.430800	-23.445500	4.898450	3.665550	-7.327490	234.321000	-52.804900	0.225282	0.000000	-0.987277	19.924700	-3.700320	7.197920
3.825000	3.113350	309.500000	66.641100	0.208353	0.000000	-1.429740	-23.552100	4.741600	3.675080	-7.344170	233.914000	-53.411900	0.225972	0.000000	-0.987976	20.052300	-3.570070	7.349540
3.830000	3.365120	306.869000	66.085200	0.209266	0.000000	-1.429300	-23.480100	4.794500	3.952270	-7.032610	231.444000	-52.529200	0.226240	0.000000	-0.989175	20.112400	-3.534670	7.325790
3.835000	3.104470	303.592000	65.824400	0.209538	0.000000	-1.429510	-23.169900	4.619460	3.981990	-7.147420	232.118000	-52.874800	0.227469	0.000000	-0.986872	19.639000	-3.490570	7.638480
3.840000	3.446830	305.730000	65.551400	0.209925	0.000000	-1.429910	-23.206800	4.518940	4.086480	-6.653150	230.342000	-52.253100	0.229168	0.000000	-0.989170	20.007300	-3.393990	7.964440
3.845000	3.008080	301.064000	65.088600	0.211540	0.000000	-1.428570	-23.262900	4.403360	4.538220	-6.747990	228.512000	-52.785300	0.229390	0.000000	-0.989074	19.828200	-3.260810	7.961620
3.850000	2.458290	298.869000	64.283500	0.211699	0.000000	-1.428490	-23.124600	4.346630	4.552220	-6.475130	229.218000	-52.791500	0.229333	0.000000	-0.988857	19.829000	-3.175490	7.939560
3.855000	3.172940	295.816000	63.716900	0.211874	0.000000	-1.427070	-23.297000	4.285270	4.544490	-5.688690	229.957000	-53.272100	0.229154	0.000000	-0.988756	19.846700	-3.068980	7.888060
3.860000	3.189920	293.565000	63.892500	0.212932	0.000000	-1.427630	-22.956200	4.133970	4.821520	-5.784540	230.999000	-53.545300	0.229170	0.000000	-0.987570	19.660000	-2.919490	7.890300
3.865000	3.712450	291.696000	62.880000	0.213349	0.000000	-1.427400	-22.867800	4.036070	4.881960	-5.164680	231.355000	-54.005200	0.230235	0.000000	-0.988654	19.926800	-2.870110	8.149390
3.870000	3.358610	288.702000	62.592300	0.214238	0.000000	-1.425430	-23.208500	3.779310	5.064390	-5.512240	228.817000	-54.269300	0.230454	0.000000	-0.989628	19.940300	-2.784440	8.133950
3.875000	3.072470	286.484000	61.601000	0.214861	0.000000	-1.425850	-22.915400	3.768810	5.211690	-4.528420	230.641000	-54.647400	0.230834	0.000000	-0.990163	20.198300	-2.751160	8.256180
3.880000	1.883890	283.537000	60.369100	0.215996	0.000000	-1.424390	-23.110700	3.634820	5.482190	-4.623210	230.270000	-54.654100	0.231667	0.000000	-0.989032	19.905200	-2.585230	8.410660
3.885000	2.159090	281.672000	60.527100	0.217603	0.000000	-1.424160	-23.017700	3.458930	5.892540	-4.358050	229.915000	-55.292900	0.231382	0.000000	-0.989737	20.031100	-2.582910	8.344640
3.890000	1.266260	279.480000	60.177400	0.218128	0.000000	-1.424700	-22.703000	3.235190	5.975850	-4.428730	229.938000	-54.744400	0.231609	0.000000	-0.990051	20.106100	-2.546640	8.378090
3.895000	0.901939	278.717000	59.821300	0.218127	0.000000	-1.424020	-22.835600	3.037520	5.921160	-4.702930	228.437000	-55.089800	0.232353	0.000000	-0.990249	20.024200	-2.346010	8.485170
3.900000	1.065360	278.374000	59.284400	0.219249	0.000000	-1.425250	-22.464600	2.930190	6.207060	-5.055580	229.541000	-55.219700	0.232988	0.000000	-0.990000	20.070000	-2.278560	8.664260
3.905000	0.810133	271.321000	58.541200	0.219981	0.000000	-1.423470	-22.381500	2.831560	6.270280	-4.854290	232.484000	-54.432200	0.232994	0.000000	-0.990055	20.331700	-2.227700	8.711490
3.910000	0.393823	269.472000	58.994700	0.220612	0.000000	-1.423600	-22.199900	2.732960	6.411720	-5.136280	231.011000	-54.768500	0.234204	0.000000	-0.988098	19.756000	-2.078380	8.941980
3.915000	-0.167680	269.454000	58.373600	0.220498	0.000000	-1.423150	-22.325400	2.592990	6.347260	-5.303150	228.442000	-54.580300	0.234046	0.000000	-0.990297	20.042800	-2.004920	8.811230
3.920000	0.199289	264.625000	57.641000	0.221155	0.000000	-1.422700	-22.041600	2.463770	6.396890	-5.218940	231.750000	-54.582900	0.234549	0.000000	-0.989290	20.094300	-1.956790	9.017800
3.925000	-0.086041	265.012000	57.194800	0.221263	0.000000	-1.423860	-21.769900	2.267190	6.388130	-5.479740	230.672000	-54.481200	0.235416	0.000000	-0.989878	20.140300	-1.802850	9.163510
3.930000	0.099045	264.994000	57.548900	0.221521	0.000000	-1.423220	-21.935900	2.333190	6.476880	-5.652620	230.305000	-54.642700	0.235990	0.000000	-0.990664	20.295400	-1.853850	9.312690
3.935000	-0.431332	264.637000	57.562200	0.221835	0.000000	-1.422940	-21.987100	2.187210	6.535320	-6.119520	230.656000	-54.640300	0.234728	0.000000	-0.990079	20.194000	-1.662820	8.979840
3.940000	-0.158504	263.919000	57.653400	0.222742	0.000000	-1.423450	-21.789000	2.088380	6.747480	-5.752210	230.308000	-54.819900	0.236509	0.000000	-0.990044	20.149800	-1.614870	9.388260
3.945000	-0.436058	263.525000	57.289900	0.222497	0.000000	-1.423400	-21.773300	2.020450	6.655770	-5.847180	228.469000	-54.998400	0.236916	0.000000	-0.989698	19.913800	-1.597070	9.429440
3.950000	-0.874203	260.590000	57.300800	0.222133	0.000000	-1.423450	-21.522000	1.866940	6.472830	-6.107400	229.204000	-55.067200	0.237706	0.000000	-0.990282	20.112900	-1.424980	9.611540
3.955000	-0.611073	261.317000	57.201400	0.223285	0.000000	-1.423500	-21.565400	1.730050	6.766060	-5.843560	230.685000	-54.995400	0.237640	0.000000	-0.989525	20.060000	-1.374830	9.624680
